<svg xmlns="http://www.w3.org/2000/svg" width="1792" height="1792"><path d="M1152 896c0-70.7-25-131-75-181s-110.3-75-181-75-131 25-181 75-75 110.3-75 181 25 131 75 181 110.3 75 181 75 131-25 181-75 75-110.3 75-181zm512-109v222c0 8-2.7 15.7-8 23s-12 11.7-20 13l-185 28c-12.7 36-25.7 66.3-39 91 23.3 33.3 59 79.3 107 138 6.7 8 10 16.3 10 25s-3 16.3-9 23c-18 24.7-51 60.7-99 108s-79.3 71-94 71c-8 0-16.7-3-26-9l-138-108c-29.3 15.3-59.7 28-91 38-10.7 90.7-20.3 152.7-29 186-4.7 18.7-16.7 28-36 28H785c-9.3 0-17.5-2.8-24.5-8.5s-10.8-12.8-11.5-21.5l-28-184c-32.7-10.7-62.7-23-90-37l-141 107c-6.7 6-15 9-25 9-9.3 0-17.7-3.7-25-11-84-76-139-132-165-168-4.7-6.7-7-14.3-7-23 0-8 2.7-15.7 8-23 10-14 27-36.2 51-66.5s42-53.8 54-70.5c-18-33.3-31.7-66.3-41-99l-183-27c-8.7-1.3-15.7-5.5-21-12.5s-8-14.8-8-23.5V783c0-8 2.7-15.7 8-23s11.7-11.7 19-13l186-28c9.3-30.7 22.3-61.3 39-92-26.7-38-62.3-84-107-138-6.7-8-10-16-10-24 0-6.7 3-14.3 9-23 17.3-24 50.2-59.8 98.5-107.5S450.3 263 465 263c8.7 0 17.3 3.3 26 10l138 107c29.3-15.3 59.7-28 91-38 10.7-90.7 20.3-152.7 29-186 4.7-18.7 16.7-28 36-28h222c9.3 0 17.5 2.8 24.5 8.5s10.8 12.8 11.5 21.5l28 184c32.7 10.7 62.7 23 90 37l142-107c6-6 14-9 24-9 8.7 0 17 3.3 25 10 86 79.3 141 136 165 170 4.7 5.3 7 12.7 7 22 0 8-2.7 15.7-8 23-10 14-27 36.2-51 66.5s-42 53.8-54 70.5c17.3 33.3 31 66 41 98l183 28c8.7 1.3 15.7 5.5 21 12.5s8 14.8 8 23.5z" fill="#fff"/></svg>