<svg xmlns="http://www.w3.org/2000/svg" width="2048" height="1792"><path d="M960 896c0-70.7-25-131-75-181s-110.3-75-181-75-131 25-181 75-75 110.3-75 181 25 131 75 181 110.3 75 181 75 131-25 181-75 75-110.3 75-181zm768 512c0-34.7-12.7-64.7-38-90s-55.3-38-90-38-64.7 12.7-90 38-38 55.3-38 90c0 35.3 12.5 65.5 37.5 90.5s55.2 37.5 90.5 37.5 65.5-12.5 90.5-37.5 37.5-55.2 37.5-90.5zm0-1024c0-34.7-12.7-64.7-38-90s-55.3-38-90-38-64.7 12.7-90 38-38 55.3-38 90c0 35.3 12.5 65.5 37.5 90.5s55.2 37.5 90.5 37.5 65.5-12.5 90.5-37.5 37.5-55.2 37.5-90.5zm-384 421v185c0 6.7-2.3 13.2-7 19.5s-10 9.8-16 10.5l-155 24c-7.3 23.3-18 48.7-32 76 22.7 32 52.7 70.3 90 115 4.7 7.3 7 14 7 20 0 8-2.3 14.3-7 19-15.3 20-42.8 49.8-82.5 89.5s-65.8 59.5-78.5 59.5c-7.3 0-14.3-2.3-21-7l-115-90c-24.7 12.7-50.3 23-77 31-7.3 72-15 123.7-23 155-4.7 16-14.7 24-30 24H611c-7.3 0-14-2.5-20-7.5s-9.3-10.8-10-17.5l-23-153c-22.7-6.7-47.7-17-75-31l-118 89c-4.7 4.7-11.3 7-20 7-7.3 0-14.3-2.7-21-8-96-88.7-144-142-144-160 0-6 2.3-12.3 7-19 6.7-9.3 20.3-27 41-53s36.3-46.3 47-61c-15.3-29.3-27-56.7-35-82l-152-24c-6.7-.7-12.3-3.8-17-9.5s-7-12.2-7-19.5V802c0-6.7 2.3-13.2 7-19.5s10-9.8 16-10.5l155-24c7.3-23.3 18-48.7 32-76-22.7-32-52.7-70.3-90-115-4.7-7.3-7-14-7-20 0-8 2.3-14.7 7-20 14.7-20 42-49.7 82-89s66.3-59 79-59c7.3 0 14.3 2.3 21 7l115 90c22.7-12 48.3-22.7 77-32 7.3-72 15-123.3 23-154 4.7-16 14.7-24 30-24h186c7.3 0 14 2.5 20 7.5s9.3 10.8 10 17.5l23 153c22.7 6.7 47.7 17 75 31l118-89c5.3-4.7 12-7 20-7 7.3 0 14.3 2.7 21 8 96 88.7 144 142 144 160 0 5.3-2.3 11.7-7 19-8 10.7-22 28.7-42 54s-35 45.3-45 60c15.3 32 26.7 59.3 34 82l152 23c6.7 1.3 12.3 4.8 17 10.5s7 12.2 7 19.5zm640 533v140c0 10.7-49.7 21-149 31-8 18-18 35.3-30 52 34 75.3 51 121.3 51 138 0 2.7-1.3 5-4 7-81.3 47.3-122.7 71-124 71-5.3 0-20.7-15.7-46-47s-42.7-54-52-68c-13.3 1.3-23.3 2-30 2s-16.7-.7-30-2c-9.3 14-26.7 36.7-52 68s-40.7 47-46 47c-1.3 0-42.7-23.7-124-71-2.7-2-4-4.3-4-7 0-16.7 17-62.7 51-138-12-16.7-22-34-30-52-99.3-10-149-20.3-149-31v-140c0-10.7 49.7-21 149-31 8.7-19.3 18.7-36.7 30-52-34-75.3-51-121.3-51-138 0-2.7 1.3-5 4-7 2.7-1.3 14.3-8 35-20s40.3-23.3 59-34 28.7-16 30-16c5.3 0 20.7 15.5 46 46.5s42.7 53.5 52 67.5c13.3-1.3 23.3-2 30-2s16.7.7 30 2c34-47.3 64.7-84.7 92-112l6-2c2.7 0 44 23.3 124 70 2.7 2 4 4.3 4 7 0 16.7-17 62.7-51 138 11.3 15.3 21.3 32.7 30 52 99.3 10 149 20.3 149 31zm0-1024v140c0 10.7-49.7 21-149 31-8 18-18 35.3-30 52 34 75.3 51 121.3 51 138 0 2.7-1.3 5-4 7-81.3 47.3-122.7 71-124 71-5.3 0-20.7-15.7-46-47s-42.7-54-52-68c-13.3 1.3-23.3 2-30 2s-16.7-.7-30-2c-9.3 14-26.7 36.7-52 68s-40.7 47-46 47c-1.3 0-42.7-23.7-124-71-2.7-2-4-4.3-4-7 0-16.7 17-62.7 51-138-12-16.7-22-34-30-52-99.3-10-149-20.3-149-31V314c0-10.7 49.7-21 149-31 8.7-19.3 18.7-36.7 30-52-34-75.3-51-121.3-51-138 0-2.7 1.3-5 4-7 2.7-1.3 14.3-8 35-20s40.3-23.3 59-34 28.7-16 30-16c5.3 0 20.7 15.5 46 46.5s42.7 53.5 52 67.5c13.3-1.3 23.3-2 30-2s16.7.7 30 2c34-47.3 64.7-84.7 92-112l6-2c2.7 0 44 23.3 124 70 2.7 2 4 4.3 4 7 0 16.7-17 62.7-51 138 11.3 15.3 21.3 32.7 30 52 99.3 10 149 20.3 149 31z" fill="#fff"/></svg>