<svg xmlns="http://www.w3.org/2000/svg" width="1792" height="1792"><path d="M1568 160c29.3 34.7 33.3 84 12 148s-57.3 121.3-108 172l-161 161 160 696c3.3 12.7-.7 23.7-12 33l-128 96c-4.7 4-11 6-19 6-2.7 0-5-.3-7-1-10-2-17-7.3-21-16l-279-508-259 259 53 194c3.3 11.3.7 21.7-8 31l-96 96c-6 6-13.7 9-23 9h-2c-10-1.3-18-5.7-24-13l-189-252-252-189c-7.3-4.7-11.7-12.3-13-23-.7-8.7 2.3-17 9-25l96-97c6-6 13.7-9 23-9 4 0 6.7.3 8 1l194 53 259-259-508-279c-9.3-5.3-15-13.3-17-24-1.3-10.7 1.7-19.7 9-27l128-128c9.3-8.7 19.3-11.3 30-8l665 159 160-160c50.7-50.7 108-86.7 172-108s113.3-17.3 148 12z" fill="#fff"/></svg>