<svg xmlns="http://www.w3.org/2000/svg" width="1792" height="1792"><path d="M1344 960V320H896v1137c79.3-42 150.3-87.7 213-137 156.7-122.7 235-242.7 235-360zm192-768v768c0 57.3-11.2 114.2-33.5 170.5s-50 106.3-83 150-72.3 86.2-118 127.5-87.8 75.7-126.5 103-79 53.2-121 77.5-71.8 40.8-89.5 49.5-31.8 15.3-42.5 20c-8 4-16.7 6-26 6s-18-2-26-6c-10.7-4.7-24.8-11.3-42.5-20s-47.5-25.2-89.5-49.5-82.3-50.2-121-77.5-80.8-61.7-126.5-103-85-83.8-118-127.5-60.7-93.7-83-150S256 1017.3 256 960V192c0-17.3 6.3-32.3 19-45s27.7-19 45-19h1152c17.3 0 32.3 6.3 45 19s19 27.7 19 45z" fill="#fff"/></svg>