<svg width="48" height="48" fill="none" xmlns="http://www.w3.org/2000/svg"><path fill-rule="evenodd" clip-rule="evenodd" d="M24 46c12.15 0 22-9.85 22-22S36.15 2 24 2 2 11.85 2 24s9.85 22 22 22zm-4.552-35h10.104C33.66 11 37 14.341 37 18.448v10.104C37 32.66 33.659 36 29.552 36H19.448C15.34 36 12 32.659 12 28.552V18.448C12 14.34 15.341 11 19.448 11zm10.104 22.485a4.933 4.933 0 004.933-4.933V18.448a4.933 4.933 0 00-4.933-4.933H19.448a4.933 4.933 0 00-4.933 4.933v10.104a4.933 4.933 0 004.933 4.933h10.104zM24.5 17.035a6.473 6.473 0 00-6.465 6.465c0 3.566 2.9 6.466 6.465 6.466 3.566 0 6.466-2.9 6.466-6.466 0-3.565-2.9-6.465-6.466-6.465zm0 10.416a3.95 3.95 0 110-7.901 3.95 3.95 0 010 7.901zm8.028-10.368a1.55 1.55 0 11-3.1 0 1.55 1.55 0 013.1 0z" fill="#fff"/></svg>