<svg width="48" height="48" fill="none" xmlns="http://www.w3.org/2000/svg"><path fill-rule="evenodd" clip-rule="evenodd" d="M24 46c12.15 0 22-9.85 22-22S36.15 2 24 2 2 11.85 2 24s9.85 22 22 22zM12.304 19.45h5.144v15.457h-5.144V19.45zm5.483-4.78C17.754 13.154 16.67 12 14.91 12 13.15 12 12 13.154 12 14.67c0 1.484 1.117 2.671 2.843 2.671h.033c1.794 0 2.911-1.187 2.911-2.671zm12.29 4.418c3.385 0 5.923 2.21 5.923 6.957v8.861h-5.144v-8.268c0-2.077-.744-3.495-2.607-3.495-1.42 0-2.267.956-2.639 1.879-.136.33-.17.791-.17 1.253v8.632h-5.144s.068-14.006 0-15.456h5.145v2.19c.682-1.053 1.905-2.553 4.636-2.553z" fill="#fff"/></svg>