<svg width="48" height="48" fill="none" xmlns="http://www.w3.org/2000/svg"><path fill-rule="evenodd" clip-rule="evenodd" d="M24 46c12.15 0 22-9.85 22-22S36.15 2 24 2 2 11.85 2 24s9.85 22 22 22zm-.295-25.466l-.052-.858c-.156-2.223 1.214-4.254 3.382-5.042.798-.28 2.15-.315 3.035-.07.346.105 1.006.455 1.474.77l.85.578.936-.298c.52-.157 1.214-.42 1.526-.595.295-.157.555-.245.555-.193 0 .298-.642 1.314-1.18 1.874-.728.788-.52.858.954.332.885-.297.902-.297.729.035-.104.175-.642.788-1.214 1.349-.971.962-1.023 1.067-1.023 1.873 0 1.243-.59 3.834-1.18 5.252-1.092 2.661-3.433 5.41-5.774 6.793-3.295 1.943-7.682 2.433-11.376 1.295C14.116 33.244 12 32.264 12 32.09c0-.053.642-.123 1.422-.14a9.764 9.764 0 004.648-1.296l.936-.56-1.075-.368c-1.526-.525-2.896-1.733-3.243-2.871-.104-.368-.07-.385.902-.385l1.006-.018-.85-.402c-1.006-.508-1.925-1.366-2.376-2.241-.33-.63-.746-2.224-.624-2.346.034-.053.399.052.815.192 1.196.438 1.352.333.659-.402-1.3-1.33-1.7-3.31-1.075-5.182l.294-.84 1.145 1.137c2.34 2.294 5.098 3.66 8.254 4.062l.867.105z" fill="#fff"/></svg>