<svg width="48" height="48" fill="none" xmlns="http://www.w3.org/2000/svg"><path d="M21.375 28.875v-8.75l7 4.375-7 4.375z" fill="#fff"/><path fill-rule="evenodd" clip-rule="evenodd" d="M24 2C11.85 2 2 11.85 2 24s9.85 22 22 22 22-9.85 22-22S36.15 2 24 2zm13.415 15.143c-.322-1.238-1.271-2.212-2.476-2.542C32.756 14 24 14 24 14s-8.756 0-10.94.6c-1.204.331-2.153 1.306-2.475 2.543C10 19.385 10 24.063 10 24.063s0 4.677.585 6.92c.322 1.236 1.27 2.21 2.476 2.541 2.183.601 10.939.601 10.939.601s8.756 0 10.94-.6c1.204-.331 2.153-1.306 2.475-2.543.585-2.242.585-6.92.585-6.92s0-4.677-.585-6.92z" fill="#fff"/></svg>