<svg id="Layer_1" data-name="Layer 1" xmlns="http://www.w3.org/2000/svg" viewBox="0 0 399.464 140.053"><defs><style>.cls-1,.cls-6{fill:#fff}.cls-2{fill:#0994dc}.cls-6{fill-rule:evenodd}</style></defs><path class="cls-1" d="M106.948 22.04a2.73 2.73 0 00-2.662 2.015l-9.808 23.44-9.635-23.292a2.853 2.853 0 00-2.847-2.163 2.89 2.89 0 00-2.883 2.824 3.51 3.51 0 00.232 1.11 3.132 3.132 0 01.09.303.253.253 0 00.031.063l11.746 26.537a3.36 3.36 0 003.14 2.3h.242a3.282 3.282 0 003.076-2.306l11.819-26.666a3.726 3.726 0 00.28-1.341 2.826 2.826 0 00-2.821-2.824M117.065 10.046a3.025 3.025 0 00-3.24 3.004v.792a3.054 3.054 0 003.24 2.996 3.09 3.09 0 003.306-2.996v-.792a3.061 3.061 0 00-3.306-3.005M117.065 22.04a2.855 2.855 0 00-2.822 2.88v27.197a2.851 2.851 0 002.879 2.88 2.79 2.79 0 002.826-2.88V24.921a2.853 2.853 0 00-2.883-2.881M138.841 35.811l-.124-.038c-3.889-1.183-7.566-2.301-7.566-4.853v-.124c0-2.405 2.228-4.022 5.54-4.022a16.391 16.391 0 017.94 2.37 2.889 2.889 0 001.269.296 2.551 2.551 0 002.573-2.52 2.786 2.786 0 00-1.423-2.395 22.353 22.353 0 00-10.236-2.726c-6.58 0-11.185 3.9-11.185 9.486v.117c0 6.294 6.205 8.057 10.737 9.341 4.21 1.181 7.435 2.297 7.435 5.014v.122c0 2.66-2.392 4.447-5.96 4.447a17.058 17.058 0 01-9.61-3.22 2.395 2.395 0 00-1.475-.476 2.55 2.55 0 00-2.576 2.519 2.64 2.64 0 001.062 2.12 22.104 22.104 0 0012.35 4.034c6.984 0 11.667-3.988 11.667-9.911v-.12c0-6.336-6.275-8.212-10.417-9.46M157.097 22.04a2.852 2.852 0 00-2.817 2.88v27.197a2.848 2.848 0 002.878 2.88 2.793 2.793 0 002.826-2.88V24.921a2.854 2.854 0 00-2.887-2.881M157.097 10.046a3.027 3.027 0 00-3.24 3.004v.792a3.056 3.056 0 003.24 2.996 3.09 3.09 0 003.306-2.996v-.792a3.064 3.064 0 00-3.306-3.005M181.69 49.54a2.686 2.686 0 00-.642.116 8.138 8.138 0 01-2.204.307c-3.245 0-4.749-1.489-4.749-4.691v-17.77h7.595a2.578 2.578 0 100-5.155h-7.595v-6.872a2.914 2.914 0 00-2.876-2.88 2.82 2.82 0 00-2.828 2.88v6.873h-2.028a2.61 2.61 0 00-2.575 2.573 2.645 2.645 0 002.575 2.581h2.028V45.88c0 6.032 3.327 9.361 9.36 9.361a12.207 12.207 0 004.79-.884 2.463 2.463 0 001.666-2.3 2.52 2.52 0 00-2.517-2.516" transform="translate(-5.639 -2.584)"/><path class="cls-2" d="M65.884 51.193c1.168.52 1.048 1.738 2.057 2.342 1.122 1.914 2.4 4.091 1.385 6.481.72 3.312-2.265 4.555-3.594 7.105-.82.322-1.325 1.459-2.451.974a2.877 2.877 0 01-2.287.457c-.305.535-.975.038-1.35.358-4.893.415-7.875-3.788-11.132-6.814-.466-.572-1.144-.61-1.704-1.25-.809-.028-1.377-.996-2.249-.489a4.661 4.661 0 01-2.044.857c-.173.554-.929.105-.826.777-1.51.301-.884 2.638-2.752 2.051-.711.246-.897-.617-1.45-.718.121-.73-.165-1.122.189-1.735 1.105-.543 2.188-1.432 3.158-2.032.175-.533 1.028-.533 1.508-.882.141-.221.38-.213.54-.398 1.557.204 3.376-.205 4.667.572 1.546.535 3.093 2.104 4.31 3.092 1.118 1.551 2.632 3.537 4.41 3.91.406 1.103 2.038.608 3.055.911.225-.042.51-.337.665-.115.626-.205 1.531 0 1.893-.611.786.055 1.3-.63 2.026-.73.185-.142.21-.554.547-.382.773-.806 2.106-1.596 2.119-2.872.659-.552-.065-1.24.19-1.998.657-2.283-.341-4.26-1.386-6.065a30.124 30.124 0 00-2.874-1.712c-2.057-.13-4.578-.263-5.536 1.28-.076 1.177-1.712.912-1.152 2.363-.3 1.657 1.234 2.194 2.028 3.285 1.278-.394 1.77.924 3.068.518a4.396 4.396 0 001.512-1.691 2.636 2.636 0 01-.341-1.621c.667-.028.305-.866.97-.9.676-.063.371.7.773.965a3.485 3.485 0 01.293 2.952c-.432.164-.234.604-.3.929a4.808 4.808 0 01-3.147 2.025 7.418 7.418 0 01-5.9-3.284c-.68-.879-1.474-2.11-.954-3.384.122.048.183-.049.27-.11-.537-.55.52-.88.177-1.337a6.294 6.294 0 013.756-3.88c1.175.454 2.076-.679 3.344-.424 1.52.388 3.06.74 4.519 1.23" transform="translate(-5.639 -2.584)"/><path class="cls-2" d="M36.018 64.394c1.45 1.322 3.737 1.44 5.61.943 1.62-.463 2.454-1.943 3.89-2.809.472 0 .727.516 1.2.535-1.423 1.655-2.438 3.48-4.552 4.136-1.472.259-3.196.692-4.68.143-1.254-.07-1.87-.815-2.945-1.333v-.265a13.342 13.342 0 01-2.139-2.548c-.539-.398-.522-.8-1.057-1.072-.213-.893-1.204-1.569-1.882-2.14-.794-.82-2.23-.646-3.49-.673-2.293-.074-3.141 2.8-5.07 3.348-.242.495-.97.459-.936 1.076 2.139.914 2.916-1.624 4.548-2.02a4.388 4.388 0 014.54 2.414c.44.745 1.6 1.402 1.345 2.554a1.438 1.438 0 01-1.078.25 24.339 24.339 0 01-3.474-3.07c-.855-.075-1.424.58-2.266.531-1.013.535-1.415 1.67-2.678 1.615a18.718 18.718 0 01-3.22-.672c-.271-.49-.88-.172-1.324-.273a25.091 25.091 0 01-1.876-4.018c-.403-.337-.247-.916-.796-1.196-.613-.33-1.384.356-1.474-.672-2.15-.105-3.454 1.531-4.281 3.211-.034 1.112.12 2.395 1.2 2.805.564.733 1.798.36 2.005 1.35.623-.246 1.434-.017 1.878-.682a2.601 2.601 0 00-.803-2.396c-1.075-.668-1.665.652-2.667.532a.433.433 0 01-.68.13c-.605-.163.086-.627-.127-1.065.876-1.562 2.839-1.438 4.41-1.212 1.497.442 1.425 2.337 2.404 3.213.367 1.628-1.156 2.38-1.998 3.348-1.53 1.356-3.13-.289-4.816-.143a4.163 4.163 0 01-2.278-1.46 7.748 7.748 0 01-.404-6.011c.339-.036.417-.402.404-.676 1.727-1.71 4.194-3.163 6.963-2.544 2.725.85 2.805 3.974 4.403 5.888.15.147.289.353.535.27.247-.08-.29-.733.272-.54a5.908 5.908 0 011.735-2.67c.025-.536.63-.802.939-1.214.625-.024.855-1.159 1.73-.929.605-1.217 2.168-.61 3.077-1.33 5.083-.72 7.046 4.392 9.903 7.342" transform="translate(-5.639 -2.584)"/><path d="M41.191 6.772c.215 1.558 1.238 2.956.66 4.677-.384.24-.352.739-.54.94-.34.71-.305 1.593-1.057 2.134-.358.964-1.505 1.49-2.019 2.154a8.383 8.383 0 01-7.35 1.46 3.019 3.019 0 01-2.237-.858 17.734 17.734 0 00-1.407-1.499c-.383-.341-.324-1.145-.5-1.918a5.749 5.749 0 010-2.413 6.504 6.504 0 01-1.199-2.675c.474-1.526 1.988-2.093 3.15-3.103 2.2-1.914 5.367-4.163 8.62-2.514a11.252 11.252 0 013.88 3.615" transform="translate(-5.639 -2.584)" fill="#fab20b"/><path d="M50.305 5.473c.786.846 1.55 1.81 2.291 2.79.756.157 1.089-.668 1.74-.794.572-.552 1.246-1.407 2.135-1.47.867.158 1.151.823 1.882 1.333a2.422 2.422 0 00.922 1.474c1.48-.32 2.923-1.097 4.466-1.23.916 1.202-.025 2.819-.313 4.036a29.699 29.699 0 01-1.87 3.874c.027.765-.596 1.26-.944 1.87a4.392 4.392 0 01-1.208 2.407c.12.746-.752.762-.662 1.457-1.695 1.56-1.863 3.71-3.61 5.237a18.475 18.475 0 01-2.675 2.94c-.76 1.24-2.142 1.276-3.068 2.678-.609.07-.937.843-1.489 1.06-.994 1.31.215 2.69 0 4.152.971 1.474-.065 3.125-.13 4.683-.297.712-.76 1.01-1.057 1.74.073 1.755 2.394 2.962 3.285 3.179a.615.615 0 01.585.362c.008.286-1.108.674-1.634 1.535.198.802 1.564 1.06 1.756 1.573-.459.63-1.748.737-1.973 1.295.465.619 1.986.67 2.512 1.179.086.7-.867.499-1.192.903a15.831 15.831 0 01-8.296-.404c-2.076-.278-4.01.457-6.024.672-.868-.143-.916.45-1.7.023-.155.006-.286-.118-.562-.023-.387.507-1.51-1.076-1.472-1.866.428-.596-.353-1.788.666-2.015.587-.905 1.168-2.141.53-3.2-1.695-1.512-1.139-3.957-2.13-5.749.155-1.537-.226-3.184.663-4.685-.103-.261.18-.478.271-.546.885-2.356 3.19-4.297 2.668-7.08-.337-.677.017-.843-.18-1.31-.157-.795-.54-1.108-.079-2.035.668-3.053 4.182-3.51 6.416-5.216 2.55-.558 3.8-3.423 5.087-5.356a1.264 1.264 0 01.264-.92c1.368-1.133 1.118-3.384 2.27-4.83-.122-.506.19-.832.404-1.199a9.835 9.835 0 01.777-2.929c.29-.075.522.091.678.405" transform="translate(-5.639 -2.584)" fill="#ed1c24"/><path d="M14.027 9.928c2.02 2.159 3.024 5.734 5.498 7.351a5.52 5.52 0 003.887 2.399c.824 1.065 2.502.625 3.468 1.602 1.2-.352 1.316 1.063 2.41.941a8.328 8.328 0 011.48 2.148c.427 2.691-1.782 4.283-1.744 6.814-1.36 2.78.28 5.63.124 8.566a3.257 3.257 0 01-.396 2c-.032 2.49-1.695 4.167-3.21 5.875-.553 1.73.67 4.15-.932 5.491-.726.013-1.265.54-2.01.54a10.458 10.458 0 01-4.277.128c-.457-.626-1.497.15-1.868-.668-.653-.448-1.752-.246-2.421-.272-1.679-.168-3.172.053-5.018-.162a3.358 3.358 0 01-1.2.036c-.577-.335.16-1.03.57-1.29a2.738 2.738 0 00.923-.615c.177-.744-1.457-.596-1.251-1.357.514-.368 1.825-.75 1.653-1.537-.3-.95-1.695-1.122-1.847-1.893a8.387 8.387 0 014.974-1.477c.204-.544.966-.261.937-.788.185-.551.842-1.09.398-1.743-.213-.312.09-.626-.272-.948a4.294 4.294 0 00.133-1.6c.514-.585-.21-1.196.41-1.729-.13-1.236.733-2.343.799-3.213-.095-.564.263-.356.551-1.12.289-.787.662-.888.786-1.362.122-.487-.087-2.824-1.468-3.54-1.474-.569-2.087-2.106-3.205-2.942-1.126-1.6-1.6-3.931-3.21-5.203-.157-1.392-.786-1.518-1.01-3.015a9.132 9.132 0 01-.932-2.348c.867-.777 2.546.916 3.063-.023-.025-.57-.263-2.072.32-2.274.988.04 2.144.57 2.81.23.78-.632-.1-3.006 1.077-3.001" transform="translate(-5.639 -2.584)" fill="#00a650"/><path class="cls-6" d="M169.661 79.535h-4.306v.051a12.308 12.308 0 00-8.325 3.923 13.143 13.143 0 00-3.693 9.372v1.86l-4.34 4.342a16.324 16.324 0 10-16 12.958 15.99 15.99 0 005.122-.832c.004.004.006.01.01.015l.055-.035a16.909 16.909 0 002.955-1.34 16.252 16.252 0 003.782-3.018l8.416-8.416v11.736a1.947 1.947 0 001.893 1.89h1.727a1.945 1.945 0 001.897-1.89V92.953a7.802 7.802 0 012.15-5.618 6.77 6.77 0 015.156-2.279h3.501a1.925 1.925 0 001.876-1.874v-1.768a1.93 1.93 0 00-1.876-1.879zm-42.04 25.526a10.968 10.968 0 01-4.005-3.998 10.602 10.602 0 010-10.764 10.937 10.937 0 014.005-3.999 10.595 10.595 0 0110.76 0 10.975 10.975 0 014 3.999 10.576 10.576 0 010 10.764 11.006 11.006 0 01-4 3.998 10.555 10.555 0 01-10.76 0zM106.223 69.609a16.854 16.854 0 00-19.456 2.554c-3.426 3.03-5.16 7.298-5.16 12.674v25.221a1.992 1.992 0 001.993 1.984h1.764a1.978 1.978 0 001.978-1.984V85.651c0-4.335 1.103-7.382 3.36-9.31a11.354 11.354 0 017.608-2.982 10.788 10.788 0 017.782 3.22 11.008 11.008 0 01-.029 15.815 11.41 11.41 0 01-7.753 3.038 10.486 10.486 0 01-5.753-1.623 1.987 1.987 0 00-3.042 1.657l-.025 2.049a1.982 1.982 0 001.053 1.78 16.535 16.535 0 007.85 1.877 17.145 17.145 0 007.814-1.981 16.662 16.662 0 006.441-5.852 16.323 16.323 0 002.512-8.944 15.937 15.937 0 00-2.512-8.867 16.473 16.473 0 00-6.425-5.92zM335.88 104.941a1.926 1.926 0 00-1.929.057 10.02 10.02 0 01-5.483 1.558 10.886 10.886 0 01-7.389-2.897 9.406 9.406 0 01-1.341-1.468 11.274 11.274 0 01-.596-.967 13.261 13.261 0 01-1.293-5.127c0-.035-.006-.065-.006-.1v-.015c-.021-.318-.03-.647-.03-.976v-21.06a1.948 1.948 0 00-1.893-1.883h-1.667a1.95 1.95 0 00-1.897 1.891v21.79c0 .046.004.098.004.153 0 .036-.004.065-.004.1 0 .15.012.3.012.444.005.103.005.208.009.3.013.268.025.53.048.79l.026.182c.02.236.042.46.069.686a16.793 16.793 0 00.822 3.46l-5.17 5.169V96.054c0-5.258-1.705-9.435-5.049-12.402a16.492 16.492 0 00-19.025-2.508 16.083 16.083 0 00-6.296 5.789 15.616 15.616 0 00-2.476 8.692 15.958 15.958 0 002.476 8.766 16.277 16.277 0 006.296 5.712 16.741 16.741 0 007.646 1.937 16.214 16.214 0 007.62-1.808 1.94 1.94 0 001.044-1.719v-2.032a1.941 1.941 0 00-2.981-1.644 10.234 10.234 0 01-5.61 1.592 11.155 11.155 0 01-7.563-2.965 10.773 10.773 0 01-.017-15.514 10.506 10.506 0 017.58-3.134 11.19 11.19 0 017.456 2.917c2.21 1.893 3.279 4.872 3.279 9.115v13.131a1.94 1.94 0 001.943 1.942h1.73a1.947 1.947 0 001.655-.934l.017-.007.609-.615 5.996-5.993a14.073 14.073 0 002.82 3.445 16.332 16.332 0 0010.855 4.224l.049-.002.172.002a15.832 15.832 0 007.444-1.77 1.892 1.892 0 001.017-1.679v-1.983a1.912 1.912 0 00-.979-1.668zM273.15 81.407a.933.933 0 000-1.274l-.567-.56a.918.918 0 00-1.271 0l-2.483 2.48-.608.613-1.153 1.15a18.047 18.047 0 00-11.63-4.498 16.446 16.446 0 00-16.397 16.393c0 .288.022.564.035.846l-3.859 3.86a14.354 14.354 0 00.163-2.074V81.439a1.944 1.944 0 00-1.89-1.896h-1.732a1.946 1.946 0 00-1.893 1.895v16.905a7.966 7.966 0 01-2.352 5.82 8.668 8.668 0 01-6.184 2.37 8.789 8.789 0 01-6.182-2.364 8.082 8.082 0 01-2.283-5.826V81.439a1.945 1.945 0 00-1.89-1.896h-1.734a1.942 1.942 0 00-1.89 1.895v16.905c0 .228.02.45.03.675l-5.377 5.55c-1.48 1.554-3.84 1.994-6.088 2.004a10.042 10.042 0 01-4.845-1.364 10.412 10.412 0 01-3.693-3.982 13.628 13.628 0 01-1.33-6.22v-9.95h15.568a1.924 1.924 0 001.872-1.873v-1.771a1.93 1.93 0 00-1.872-1.876h-15.569V73.58a1.949 1.949 0 00-1.897-1.885h-1.67a1.948 1.948 0 00-1.895 1.897v5.943h-3.491a1.932 1.932 0 00-1.88 1.882v1.765a1.924 1.924 0 001.872 1.874h3.5v10.686c0 4.973 1.608 9.096 4.97 12.074a16.365 16.365 0 0010.312 4.211v.013l.177-.002.364.002a1.807 1.807 0 00.375-.038 13.943 13.943 0 009.057-3.948l.966-.988 1.628-1.628.568-.565a14.62 14.62 0 002.258 3.06 14.483 14.483 0 0020.12.088c.296-.303.571-.615.836-.932l7.314-7.312c1.527 6.103 6.699 10.226 15.476 12.279a19.863 19.863 0 019.328 4.533 10.259 10.259 0 013.371 7.932 12.473 12.473 0 01-12.415 12.422 12.28 12.28 0 01-6.178-1.672 12.506 12.506 0 01-6.247-10.75 12.7 12.7 0 011.465-5.971 11.923 11.923 0 012.525-3.14 1.978 1.978 0 00-.42-3.247l-1.534-.785a1.925 1.925 0 00-2.188.252c-3.84 3.544-5.54 7.284-5.54 12.891a18.114 18.114 0 0036.228 0 15.876 15.876 0 00-5.062-11.973 21.98 21.98 0 00-5.467-3.786c.504.243.984.5 1.458.777a16.273 16.273 0 005.527-22.01 16.681 16.681 0 00-1.125-1.703l1.94-1.943zm-8.077 19.648a11.276 11.276 0 01-1.02 1.461l-.098.122c-.082.093-.156.184-.238.27-.103.123-.215.236-.324.356a.28.28 0 00-.068.064 10.996 10.996 0 01-3.984 2.556c-.116.036-.227.071-.337.107a1.712 1.712 0 01-.177.06 8.222 8.222 0 01-.433.121.88.88 0 00-.09.028c-.152.038-.3.071-.447.103-.042.004-.076.017-.12.02l-.41.079c-.138.02-.277.031-.414.046-.04.009-.086.015-.126.021-.21.021-.419.042-.63.049.13.03.26.054.388.084-.133-.03-.268-.055-.413-.084-.164.006-.324.014-.501.014a10.843 10.843 0 01-10.067-6.824 9.337 9.337 0 01-.832-3.997 10.143 10.143 0 011.021-4.493 10.843 10.843 0 0118.827-1.655.409.409 0 00.06.059c.146.219.294.438.433.674a10.582 10.582 0 010 10.76zm3.662-15.203l-.008-.02.004-.004a.06.06 0 00.003.024z" transform="translate(-5.639 -2.584)"/><path class="cls-1" d="M199.531 14.123a1.59 1.59 0 011.562-1.561h.3a1.952 1.952 0 011.562.9l16.4 24.15 16.4-24.15a1.87 1.87 0 011.563-.9h.3a1.59 1.59 0 011.562 1.561v39.349a1.562 1.562 0 01-3.124 0V18.269l-15.44 22.467a1.508 1.508 0 01-2.642 0l-15.44-22.467v35.263a1.502 1.502 0 01-3.004 0zM245.488 45.903v-.12c0-6.369 5.467-9.973 13.396-9.973a36.884 36.884 0 0110.153 1.321V35.81c0-6.188-3.784-9.371-10.092-9.371a19.813 19.813 0 00-8.71 2.042 1.567 1.567 0 01-.662.18 1.44 1.44 0 01-1.382-1.381 1.495 1.495 0 01.841-1.321 23.742 23.742 0 0110.093-2.284c4.145 0 7.449 1.142 9.672 3.365 2.043 2.042 3.124 4.866 3.124 8.65v17.842a1.443 1.443 0 11-2.884 0v-3.845a13.934 13.934 0 01-11.714 5.827c-5.707 0-11.835-3.244-11.835-9.611zm23.61-2.583v-3.485a40.605 40.605 0 00-10.394-1.382c-6.488 0-10.092 2.884-10.092 7.149v.12c0 4.445 4.205 7.028 8.89 7.028 6.249 0 11.595-3.844 11.595-9.43zM307.965 53.532a1.404 1.404 0 01-1.442 1.501 1.452 1.452 0 01-1.502-1.502v-5.586c-2.643 4.025-6.548 7.569-12.615 7.569-7.39 0-14.898-5.947-14.898-15.919v-.12c0-9.973 7.508-16.04 14.898-16.04 6.127 0 10.092 3.484 12.615 7.33V12.2a1.404 1.404 0 011.442-1.5 1.451 1.451 0 011.502 1.5zM280.69 39.353v.12c0 8.05 5.587 13.217 12.015 13.217A12.831 12.831 0 00305.2 39.534v-.12a12.792 12.792 0 00-12.495-13.156c-6.668 0-12.015 4.866-12.015 13.096zM329.05 55.514c-8.05 0-15.018-6.428-15.018-15.98v-.12c0-8.89 6.247-15.98 14.537-15.98 8.59 0 14.058 7.09 14.058 15.86a1.495 1.495 0 01-1.442 1.382h-24.03c.541 7.629 6.008 12.074 12.016 12.074a13.558 13.558 0 009.912-4.205 1.305 1.305 0 01.961-.42 1.41 1.41 0 011.441 1.382 1.444 1.444 0 01-.48 1.02 15.578 15.578 0 01-11.954 4.987zm10.393-17.482c-.42-6.187-3.965-11.894-10.994-11.894-6.067 0-10.753 5.106-11.294 11.894zM348.274 13.643a1.77 1.77 0 011.802-1.803 1.821 1.821 0 011.862 1.803v1.021a1.821 1.821 0 01-1.862 1.802 1.77 1.77 0 01-1.802-1.802zm.36 11.774a1.472 1.472 0 112.944 0v28.114a1.404 1.404 0 01-1.442 1.502 1.451 1.451 0 01-1.502-1.502zM360.169 25.417a1.472 1.472 0 112.943 0v7.45c2.644-5.948 7.99-9.192 12.315-9.192a1.565 1.565 0 011.562 1.622 1.6 1.6 0 01-1.561 1.622c-6.489.6-12.316 5.467-12.316 15.319v11.294a1.472 1.472 0 11-2.943 0zM378.67 45.903v-.12c0-6.369 5.467-9.973 13.397-9.973a36.884 36.884 0 0110.153 1.321V35.81c0-6.188-3.784-9.371-10.092-9.371a19.813 19.813 0 00-8.71 2.042 1.567 1.567 0 01-.662.18 1.44 1.44 0 01-1.382-1.381 1.495 1.495 0 01.841-1.321 23.742 23.742 0 0110.093-2.284c4.145 0 7.45 1.142 9.672 3.365 2.043 2.042 3.124 4.866 3.124 8.65v17.842a1.443 1.443 0 11-2.884 0v-3.845a13.934 13.934 0 01-11.714 5.827c-5.707 0-11.835-3.244-11.835-9.611zm23.61-2.583v-3.485a40.605 40.605 0 00-10.393-1.382c-6.488 0-10.092 2.884-10.092 7.149v.12c0 4.445 4.205 7.028 8.89 7.028 6.248 0 11.595-3.844 11.595-9.43z" transform="translate(-5.639 -2.584)"/></svg>